# xmcd
#
# Track frame offsets:
#	150
#	19034
#	37612
#	55981
#	73366
#	89464
#	104823
#	123990
#	140499
#	157778
#	181140
#
# Disc length: 2669 seconds
# Revision: 0
# Processed by: cddbd v1.5.2PL0 Copyright (c) Steve Scherf et al.
# Submitted via: dBpowerAMP V12.0
#
DISCID=900a6b0b
DTITLE=The Staple Singers - The Staple Singers: Expanded Edition (2012 Re-issue)
DYEAR=1985
DGENRE=Staples
TTITLE0=Are You Ready?
TTITLE1=Life During Wartime
TTITLE2=Nobody Can Make It On Their Own
TTITLE3=Back To The War
TTITLE4=Reason To Love
TTITLE5=We Stand (Together, Forever)
TTITLE6=Start Walking
TTITLE7=Love Works In Strange Ways
TTITLE8=Are You Ready? [US Single]
TTITLE9=Are You Ready? [US Extended Dance Mix]
TTITLE10=Are You Ready? [US Dub Mix]
EXTD=
EXTT0=
EXTT1=
EXTT2=
EXTT3=
EXTT4=
EXTT5=
EXTT6=
EXTT7=
EXTT8=
EXTT9=
EXTT10=
PLAYORDER=
